<?xml version="1.0" encoding="UTF-8" standalone="no"?>
<!-- Created with Inkscape (http://www.inkscape.org/) -->

<svg width="100mm" height="100mm" viewBox="0 0 100 100" version="1.1" xmlns="http://www.w3.org/2000/svg" background="#000000">
  <style>
    .bordered {
      stroke-width:0.5;
      stroke-linecap:square;
      stroke-linejoin:miter;
      stroke-miterlimit:20;
    }

    .front {
      fill:#656;
      stroke:#434;
    }

    .back {
      fill:#CBC;
      stroke:#A9A;
    }

  </style>
  
  <g transform="rotate(-180 50 50)">
    <path
      class="bordered back"
      d="M 52.17,53.75 L 52.17,58.75 L 65.16,66.25 L 65.16,83.75 L 56.5,88.75  L 67.32,85    L 69.49,63.75 L 58.66,57.5 L 58.66,55 L 60.83,53.75 L 71.65,60    L 88.97,47.5  L 86.81,36.25 L 86.81,46.25 L 71.65,55    L 58.66,47.5 L 54.33,50   L 54.33,52.5 Z" 
      />
    <path
      class="bordered back"
      d="M 43.5,88.75  L 34.84,83.75 L 34.84,66.25 L 47.83,58.75 L 47.83,53.75 L 45.67,52.5 L 45.67,50   L 41.34,47.5 L 28.35,55    L 13.19,46.25 L 13.19,36.25 L 11.03,47.5  L 28.35,60    L 39.17,53.75 L 41.34,55 L 41.34,57.5 L 30.51,63.75 L 32.68,85 Z" 
      />
    <path
      class="bordered back"
      d="M 52.17,46.25 L 56.5,43.75  L 56.5,28.75  L 71.65,20    L 80.31,25    L 71.65,17.5  L 52.17,26.25 L 52.17,38.75 L 50,40 L 47.83,38.75 L 47.83,26.25 L 28.35,17.5  L 19.69,25    L 28.35,20    L 43.5,28.75  L 43.5,43.75  L 47.83,46.25 L 50,45 Z" 
      />
    <path
      class="bordered back"
      d="M 62.99,67.5  L 62.99,70    L 52.17,76.25 L 50,87.5 L 47.83,76.25 L 37.01,70    L 37.01,67.5  L 39.17,66.25 L 50,72.5 L 60.83,66.25 Z" 
      />
    <path
      class="bordered back"
      d="M 71.65,52.5 L 69.49,51.25 L 69.49,38.75 L 58.66,32.5  L 58.66,30 L 60.83,28.75 L 71.65,35   L 82.48,31.25 L 73.82,38.75 L 73.82,51.25 Z" 
      />
    <path
      class="bordered back"
      d="M 41.34,30 L 41.34,32.5 L 30.51,38.75 L 30.51,51.25 L 28.35,52.5 L 26.18,51.25 L 26.18,38.75 L 17.52,31.25 L 28.35,35 L 39.17,28.75 Z" 
      />
  </g>
  <g>
    <path
      class="bordered front"
      d="M 52.17,53.75 L 52.17,58.75 L 65.16,66.25 L 65.16,83.75 L 56.5,88.75  L 67.32,85    L 69.49,63.75 L 58.66,57.5 L 58.66,55 L 60.83,53.75 L 71.65,60    L 88.97,47.5  L 86.81,36.25 L 86.81,46.25 L 71.65,55    L 58.66,47.5 L 54.33,50   L 54.33,52.5 Z" 
      />
    <path
      class="bordered front"
      d="M 43.5,88.75  L 34.84,83.75 L 34.84,66.25 L 47.83,58.75 L 47.83,53.75 L 45.67,52.5 L 45.67,50   L 41.34,47.5 L 28.35,55    L 13.19,46.25 L 13.19,36.25 L 11.03,47.5  L 28.35,60    L 39.17,53.75 L 41.34,55 L 41.34,57.5 L 30.51,63.75 L 32.68,85 Z" 
      />
    <path
      class="bordered front"
      d="M 52.17,46.25 L 56.5,43.75  L 56.5,28.75  L 71.65,20    L 80.31,25    L 71.65,17.5  L 52.17,26.25 L 52.17,38.75 L 50,40 L 47.83,38.75 L 47.83,26.25 L 28.35,17.5  L 19.69,25    L 28.35,20    L 43.5,28.75  L 43.5,43.75  L 47.83,46.25 L 50,45 Z" 
      />
    <path
      class="bordered front"
      d="M 62.99,67.5  L 62.99,70    L 52.17,76.25 L 50,87.5 L 47.83,76.25 L 37.01,70    L 37.01,67.5  L 39.17,66.25 L 50,72.5 L 60.83,66.25 Z" 
      />
    <path
      class="bordered front"
      d="M 71.65,52.5 L 69.49,51.25 L 69.49,38.75 L 58.66,32.5  L 58.66,30 L 60.83,28.75 L 71.65,35   L 82.48,31.25 L 73.82,38.75 L 73.82,51.25 Z" 
      />
    <path
      class="bordered front"
      d="M 41.34,30 L 41.34,32.5 L 30.51,38.75 L 30.51,51.25 L 28.35,52.5 L 26.18,51.25 L 26.18,38.75 L 17.52,31.25 L 28.35,35 L 39.17,28.75 Z" 
      />
  </g>
</svg>